<svg width="43" height="48" viewBox="0 0 43 48" version="1.1" xmlns="http://www.w3.org/2000/svg" xmlns:xlink="http://www.w3.org/1999/xlink">
<title>q</title>
<desc>Created using Figma</desc>
<g id="Canvas" transform="translate(-1082 1388)">
<g id="q">
<use xlink:href="#path0_fill" transform="translate(1077 -1395)" fill="#EA650D"/>
</g>
</g>
<defs>
<path id="path0_fill" d="M 34.7 38.55L 28.45 38.55L 28.45 42.6L 34.7 42.6L 34.7 38.55ZM 34.7 33.4L 28.45 33.4L 28.45 37.45L 34.7 37.45L 34.7 33.4ZM 34.7 28.25L 28.45 28.25L 28.45 32.3L 34.7 32.3L 34.7 28.25ZM 34.7 23.1L 28.45 23.1L 28.45 27.15L 34.7 27.15L 34.7 23.1ZM 34.7 17.95L 28.45 17.95L 28.45 22L 34.7 22L 34.7 17.95ZM 37.7 46.7C 37.7 47.3 37.2 47.8 36.6 47.8L 24.45 47.8L 24.45 42.6L 27.3 42.6L 27.3 38.55L 24.45 38.55L 24.45 37.45L 27.3 37.45L 27.3 33.4L 24.45 33.4L 24.45 32.3L 27.3 32.3L 27.3 28.25L 24.45 28.25L 24.45 27.15L 27.3 27.15L 27.3 23.1L 24.45 23.1L 24.45 22L 27.3 22L 27.3 17.95L 24.45 17.95L 24.45 14.9L 36.6 14.9C 37.2 14.9 37.7 15.4 37.7 16L 37.7 46.7ZM 16.85 37.25C 16.95 37.1 16.95 36.9 16.85 36.75C 15.7 34.65 14.55 32.65 13.4 30.7C 14.4 28.95 15.45 27.15 16.45 25.25C 16.55 25.1 16.55 24.9 16.5 24.75C 16.4 24.55 16.25 24.5 16.05 24.5C 15.55 24.55 15.05 24.6 14.55 24.65C 14.25 24.65 14.05 24.8 13.9 25.1C 13.2 26.4 12.45 27.7 11.7 28.95C 10.95 27.75 10.2 26.6 9.45 25.45C 9.3 25.2 9.1 25.1 8.85 25.1C 8.35 25.15 7.85 25.2 7.35 25.25C 7.15 25.25 7 25.35 6.9 25.5C 6.8 25.65 6.85 25.8 6.9 25.95C 7.95 27.45 8.95 29.05 10 30.75C 8.85 32.6 7.7 34.35 6.55 36.05C 6.45 36.2 6.45 36.35 6.5 36.5C 6.6 36.65 6.75 36.75 6.95 36.8C 7.5 36.8 8.05 36.85 8.6 36.9C 8.9 36.95 9.1 36.8 9.25 36.55C 10.05 35.25 10.85 33.85 11.7 32.45C 12.5 33.9 13.35 35.35 14.15 36.9C 14.3 37.2 14.5 37.35 14.8 37.35C 15.35 37.4 15.9 37.45 16.45 37.5C 16.6 37.5 16.8 37.4 16.85 37.25ZM 47.3 31.35C 47.3 18.3 36.7 7.7 23.65 7.7C 16.35 7.7 9.85 11 5.5 16.2C 11.05 15 16.6 13.85 22.15 12.65C 22.8 12.5 23.3 13 23.3 13.7C 23.3 25.45 23.3 37.25 23.3 49C 23.3 49.7 22.8 50.2 22.15 50.05C 16.6 48.85 11.05 47.7 5.5 46.5C 9.85 51.7 16.35 55 23.65 55C 36.7 55 47.3 44.4 47.3 31.35Z"/>
</defs>
</svg>
